<svg width="512" height="512" viewBox="0 0 512 512" fill="none" xmlns="http://www.w3.org/2000/svg">
  <defs>
    <linearGradient id="g1" x1="72" y1="56" x2="440" y2="456" gradientUnits="userSpaceOnUse">
      <stop stop-color="#8A5CFF"/>
      <stop offset="0.48" stop-color="#37E6FF"/>
      <stop offset="1" stop-color="#59F2C7"/>
    </linearGradient>
    <linearGradient id="g2" x1="120" y1="120" x2="392" y2="392" gradientUnits="userSpaceOnUse">
      <stop stop-color="#0D1226"/>
      <stop offset="1" stop-color="#202846"/>
    </linearGradient>
  </defs>
  <rect width="512" height="512" rx="124" fill="#070714"/>
  <rect x="52" y="52" width="408" height="408" rx="112" fill="url(#g1)"/>
  <rect x="92" y="92" width="328" height="328" rx="92" fill="url(#g2)"/>
  <path d="M160 148H240C286.392 148 324 185.608 324 232C324 278.392 286.392 316 240 316H210V364H160V148Z" fill="#F4F7FF"/>
  <path d="M160 148H214V364H160V148Z" fill="#37E6FF" opacity="0.24"/>
  <path d="M240 148H290L352 364H300L286 324H216L240 148Z" fill="#F4F7FF" opacity="0.95"/>
  <circle cx="350" cy="164" r="24" fill="#59F2C7"/>
  <circle cx="350" cy="164" r="10" fill="#08111F"/>
</svg>
